<svg fill="none" height="32" viewBox="0 0 32 32" width="32" xmlns="http://www.w3.org/2000/svg">
    <circle cx="16" cy="16" fill="#01ABE9" r="16" />
    <path
        d="M15.4335 9.18204C15.5975 9.06379 15.796 9 15.9999 9C16.2037 9 16.4022 9.06379 16.5663 9.18204L22.6101 13.5406C23.3255 14.057 22.9907 15.1446 22.1392 15.2206H9.86052C9.00902 15.1446 8.67491 14.057 9.38958 13.5406L15.4335 9.18204ZM15.9999 13.3546C16.253 13.3546 16.4958 13.2562 16.6749 13.0812C16.8539 12.9062 16.9545 12.6688 16.9545 12.4212C16.9545 12.1737 16.8539 11.9363 16.6749 11.7613C16.4958 11.5863 16.253 11.4879 15.9999 11.4879C15.7467 11.4879 15.5039 11.5863 15.3249 11.7613C15.1458 11.9363 15.0453 12.1737 15.0453 12.4212C15.0453 12.6688 15.1458 12.9062 15.3249 13.0812C15.5039 13.2562 15.7467 13.3546 15.9999 13.3546ZM19.5001 15.8434H21.0904V19.5766H19.4994L19.5001 15.8434ZM18.2273 19.5766V15.8434H16.6363V19.5766H18.2273ZM15.3635 19.5772V15.844H13.7725V19.5772H15.3635ZM12.5003 19.5772V15.844H10.9093V19.5772H12.5003ZM11.0684 20.1994C10.5199 20.1994 9.99378 20.4125 9.6059 20.7917C9.21802 21.171 9.00011 21.6853 9.00011 22.2216V22.5327C9.00028 22.6565 9.0506 22.7752 9.14005 22.8627C9.22951 22.9503 9.35081 22.9997 9.47741 23H22.5217C22.6483 23 22.7697 22.9508 22.8592 22.8633C22.9487 22.7758 22.999 22.6571 22.999 22.5333V22.2222C22.999 21.6859 22.7811 21.1716 22.3932 20.7924C22.0053 20.4131 21.4792 20.2001 20.9307 20.2001L11.0684 20.1994Z"
        fill="white" />
</svg>
