<svg fill="none" height="21" viewBox="0 0 19 21" width="19" xmlns="http://www.w3.org/2000/svg">
    <path
        d="M6.56478 19.0514V15.9484C6.56478 15.1564 7.19504 14.5142 7.97272 14.5142H10.8173C11.1903 14.5142 11.5485 14.6653 11.8126 14.9343C12.0768 15.2032 12.2252 15.5681 12.2252 15.9484V19.0514C12.2233 19.3807 12.3499 19.6974 12.5775 19.9312C12.806 20.1649 13.1157 20.2963 13.4392 20.2963H15.3795C16.2858 20.2986 17.1555 19.9338 17.7966 19.2823C18.4388 18.6308 18.7989 17.7461 18.7989 16.8234V7.9834C18.7989 7.23812 18.4744 6.53118 17.9134 6.05303L11.313 0.685884C10.1653 -0.255164 8.51987 -0.22478 7.40579 0.758047L0.956762 6.05303C0.369048 6.51709 0.0178095 7.22613 0 7.9834V16.8144C0 18.7374 1.53062 20.2963 3.41942 20.2963H5.31514C5.98696 20.2963 6.53312 19.7444 6.53807 19.0604L6.56478 19.0514Z"
        fill="#CFCFCF" />
</svg>
