<svg width="28" height="44" viewBox="0 0 28 44" fill="none" xmlns="http://www.w3.org/2000/svg">
<path d="M23.8824 0H4.11765C3.02725 0.00535425 1.98305 0.436305 1.21201 1.19918C0.440972 1.96206 0.00541151 2.99521 0 4.07407V39.9259C0.00541151 41.0048 0.440972 42.0379 1.21201 42.8008C1.98305 43.5637 3.02725 43.9946 4.11765 44H23.8824C24.9728 43.9946 26.017 43.5637 26.788 42.8008C27.559 42.0379 27.9946 41.0048 28 39.9259V4.07407C27.9946 2.99521 27.559 1.96206 26.788 1.19918C26.017 0.436305 24.9728 0.00535425 23.8824 0ZM1.64706 8.14815H26.3529V35.8519H1.64706V8.14815ZM4.11765 1.62963H23.8824C24.5376 1.62963 25.166 1.88717 25.6293 2.34559C26.0926 2.80401 26.3529 3.42577 26.3529 4.07407V6.51852H1.64706V4.07407C1.64706 3.42577 1.90735 2.80401 2.37068 2.34559C2.834 1.88717 3.46241 1.62963 4.11765 1.62963ZM23.8824 42.3704H4.11765C3.46241 42.3704 2.834 42.1128 2.37068 41.6544C1.90735 41.196 1.64706 40.5742 1.64706 39.9259V37.4815H26.3529V39.9259C26.3529 40.5742 26.0926 41.196 25.6293 41.6544C25.166 42.1128 24.5376 42.3704 23.8824 42.3704Z" fill="black" fill-opacity="0.7"/>
</svg>
