<svg fill="none" height="27" viewBox="0 0 27 27" width="27" xmlns="http://www.w3.org/2000/svg">
    <path clip-rule="evenodd"
        d="M7.19551 0H19.791C24.381 0 27 2.592 27 7.19551V19.8045C27 24.381 24.3945 27 19.8045 27H7.19551C2.592 27 0 24.381 0 19.8045V7.19551C0 2.592 2.592 0 7.19551 0ZM14.607 14.6205H18.441C19.062 14.607 19.5615 14.1075 19.5615 13.4865C19.5615 12.8655 19.062 12.366 18.441 12.366H14.607V8.55901C14.607 7.93801 14.1075 7.43851 13.4865 7.43851C12.8655 7.43851 12.366 7.93801 12.366 8.55901V12.366H8.54551C8.24851 12.366 7.96501 12.4875 7.74901 12.69C7.54651 12.906 7.42501 13.1882 7.42501 13.4865C7.42501 14.1075 7.92451 14.607 8.54551 14.6205H12.366V18.441C12.366 19.062 12.8655 19.5615 13.4865 19.5615C14.1075 19.5615 14.607 19.062 14.607 18.441V14.6205Z"
        fill="white" fill-rule="evenodd" />
</svg>
