<svg fill="none" height="28" viewBox="0 0 28 28" width="28" xmlns="http://www.w3.org/2000/svg">
    <path
        d="M25.9884 2.07971C26.2068 1.84528 26.3257 1.53522 26.3201 1.21484C26.3144 0.894461 26.1846 0.588785 25.9581 0.362208C25.7315 0.135631 25.4258 0.00584536 25.1054 0.000192666C24.7851 -0.00546003 24.475 0.113462 24.2406 0.331905L20.2074 4.3634C18.9263 3.49018 17.3805 3.09157 15.8368 3.23637C14.2931 3.38116 12.8484 4.06027 11.752 5.15651L11.2573 5.65117C11.029 5.87933 10.8479 6.15025 10.7243 6.44845C10.6007 6.74665 10.5371 7.06629 10.5371 7.38908C10.5371 7.71188 10.6007 8.03151 10.7243 8.32971C10.8479 8.62791 11.029 8.89883 11.2573 9.12699L15.3218 13.1898C16.3965 12.4261 17.6245 11.9055 18.9206 11.664C20.2168 11.4226 21.5499 11.4661 22.8275 11.7916C23.1152 10.84 23.1863 9.83617 23.0357 8.85356C22.885 7.87096 22.5164 6.93451 21.9569 6.11285L25.9884 2.07971ZM9.12699 11.2573L13.1898 15.3218C12.4261 16.3965 11.9055 17.6245 11.664 18.9206C11.4226 20.2168 11.4661 21.5499 11.7916 22.8275C10.84 23.1152 9.83617 23.1863 8.85356 23.0357C7.87096 22.885 6.93451 22.5164 6.11285 21.9569L2.07971 25.9884C1.84528 26.2068 1.53522 26.3257 1.21484 26.3201C0.894461 26.3144 0.588785 26.1846 0.362208 25.9581C0.135631 25.7315 0.00584536 25.4258 0.000192666 25.1054C-0.00546003 24.7851 0.113462 24.475 0.331905 24.2406L4.36505 20.2074C3.49162 18.9264 3.09274 17.3808 3.23723 15.8371C3.38172 14.2934 4.06053 12.8486 5.15651 11.752L5.65117 11.2573C5.87933 11.029 6.15025 10.8479 6.44845 10.7243C6.74665 10.6007 7.06629 10.5371 7.38908 10.5371C7.71188 10.5371 8.03151 10.6007 8.32971 10.7243C8.62791 10.8479 8.89883 11.029 9.12699 11.2573ZM28 20.5801C28 22.548 27.2183 24.4352 25.8268 25.8268C24.4352 27.2183 22.548 28 20.5801 28C18.6122 28 16.7249 27.2183 15.3334 25.8268C13.9419 24.4352 13.1601 22.548 13.1601 20.5801C13.1601 18.6122 13.9419 16.7249 15.3334 15.3334C16.7249 13.9419 18.6122 13.1601 20.5801 13.1601C22.548 13.1601 24.4352 13.9419 25.8268 15.3334C27.2183 16.7249 28 18.6122 28 20.5801ZM24.4615 17.5231C24.3849 17.4463 24.294 17.3854 24.1938 17.3438C24.0936 17.3022 23.9863 17.2808 23.8778 17.2808C23.7694 17.2808 23.662 17.3022 23.5618 17.3438C23.4617 17.3854 23.3707 17.4463 23.2941 17.5231L18.9312 21.8876L17.866 20.8208C17.7112 20.666 17.5013 20.579 17.2823 20.579C17.0634 20.579 16.8534 20.666 16.6986 20.8208C16.5438 20.9756 16.4568 21.1856 16.4568 21.4045C16.4568 21.6234 16.5438 21.8334 16.6986 21.9882L18.3475 23.6371C18.4241 23.7139 18.5151 23.7748 18.6152 23.8163C18.7154 23.8579 18.8228 23.8793 18.9312 23.8793C19.0396 23.8793 19.147 23.8579 19.2472 23.8163C19.3473 23.7748 19.4383 23.7139 19.5149 23.6371L24.4615 18.6905C24.5383 18.6139 24.5992 18.5229 24.6408 18.4227C24.6823 18.3226 24.7037 18.2152 24.7037 18.1068C24.7037 17.9983 24.6823 17.8909 24.6408 17.7908C24.5992 17.6906 24.5383 17.5996 24.4615 17.5231Z"
        fill="#108EE9" />
</svg>
