<svg fill="none" height="36" viewBox="0 0 28 36" width="28" xmlns="http://www.w3.org/2000/svg">
    <path
        d="M0 5.85C0 4.29848 0.599217 2.81051 1.66583 1.71343C2.73244 0.616337 4.17908 1.79839e-07 5.6875 1.79839e-07H15.2495C15.9967 -0.000190372 16.7366 0.151048 17.4269 0.445074C18.1172 0.739101 18.7444 1.17015 19.2727 1.7136L26.334 8.9766C27.4015 10.0746 28 11.5632 28 13.1148V30.15C28 30.9182 27.8529 31.6789 27.5671 32.3887C27.2812 33.0985 26.8623 33.7434 26.3342 34.2866C25.806 34.8298 25.1791 35.2607 24.489 35.5547C23.799 35.8487 23.0594 36 22.3125 36H5.6875C4.94061 36 4.20103 35.8487 3.51099 35.5547C2.82095 35.2607 2.19396 34.8298 1.66583 34.2866C1.1377 33.7434 0.718759 33.0985 0.432935 32.3887C0.147112 31.6789 0 30.9182 0 30.15V5.85ZM6.5625 21.6H14V15.75H9.1875C8.49131 15.75 7.82363 16.0345 7.33134 16.5408C6.83906 17.0472 6.5625 17.7339 6.5625 18.45V21.6ZM6.5625 24.3V26.55C6.5625 27.2661 6.83906 27.9528 7.33134 28.4592C7.82363 28.9655 8.49131 29.25 9.1875 29.25H14V24.3H6.5625ZM16.625 29.25H18.8125C19.5087 29.25 20.1764 28.9655 20.6687 28.4592C21.1609 27.9528 21.4375 27.2661 21.4375 26.55V18.45C21.4375 17.7339 21.1609 17.0472 20.6687 16.5408C20.1764 16.0345 19.5087 15.75 18.8125 15.75H16.625V29.25Z"
        fill="#F15820" />
</svg>
