<svg fill="none" height="23" viewBox="0 0 20 23" width="20" xmlns="http://www.w3.org/2000/svg">
    <path
        d="M0.853391 12.0592L17.4961 1.02485C17.6642 0.913247 17.8628 0.85169 18.0688 0.847296C18.2748 0.842903 18.4799 0.895853 18.6603 1.00002C18.8407 1.10419 18.9891 1.25532 19.0883 1.43593C19.1875 1.61655 19.2335 1.81926 19.2209 2.02063L17.9863 21.9509C17.9737 22.1552 17.9014 22.3498 17.7779 22.5113C17.6544 22.6728 17.4849 22.7946 17.2896 22.862C17.0943 22.9295 16.8814 22.9398 16.6763 22.8918C16.4711 22.8438 16.2823 22.7394 16.1324 22.5911L11.1185 17.6311C11.057 17.5703 11.0146 17.4938 10.9964 17.411C10.9782 17.3282 10.9851 17.2428 11.0163 17.1655L14.2873 9.05093C14.3008 9.01689 14.3049 8.97971 14.2993 8.943C14.2937 8.90629 14.2786 8.8713 14.2554 8.84143L14.2156 8.80084C14.1763 8.7704 14.1281 8.75354 14.0788 8.75301C14.0295 8.75248 13.982 8.7683 13.9441 8.79791L13.9093 8.8317L8.52172 15.7145C8.47027 15.7799 8.39982 15.8284 8.31911 15.8539C8.23841 15.8794 8.15102 15.8808 8.0678 15.858L1.22658 13.9853C1.02305 13.9297 0.838097 13.8185 0.693758 13.6648C0.549418 13.5112 0.451771 13.3216 0.412447 13.1186C0.373123 12.9156 0.39378 12.7079 0.471956 12.5201C0.550133 12.3322 0.682534 12.1723 0.853391 12.0592Z"
        fill="#CFCFCF" />
</svg>
