<svg fill="none" height="16" viewBox="0 0 16 16" width="16" xmlns="http://www.w3.org/2000/svg">
    <circle cx="8" cy="8" fill="#F15820" r="8" />
    <path
        d="M4.1131 8.76569L9.43878 5.2347C9.49257 5.19899 9.5561 5.17929 9.62202 5.17789C9.68795 5.17648 9.75358 5.19343 9.81131 5.22676C9.86905 5.26009 9.91653 5.30845 9.94828 5.36625C9.98002 5.42405 9.99473 5.48892 9.9907 5.55336L9.59561 11.931C9.5916 11.9964 9.56846 12.0587 9.52894 12.1104C9.48941 12.1621 9.43518 12.201 9.37269 12.2226C9.31019 12.2442 9.24207 12.2475 9.17642 12.2321C9.11077 12.2168 9.05036 12.1834 9.00238 12.1359L7.39793 10.5487C7.37826 10.5293 7.36467 10.5048 7.35885 10.4783C7.35304 10.4518 7.35525 10.4244 7.36522 10.3997L8.41196 7.80305C8.41627 7.79216 8.41759 7.78026 8.4158 7.76851C8.41401 7.75677 8.40917 7.74557 8.40174 7.73601L8.38901 7.72302C8.37643 7.71328 8.36099 7.70789 8.34522 7.70772C8.32945 7.70755 8.31427 7.71261 8.30213 7.72208L8.291 7.7329L6.56696 9.93538C6.5505 9.95632 6.52795 9.97183 6.50213 9.98C6.4763 9.98816 6.44834 9.98862 6.42171 9.98132L4.23252 9.38204C4.16739 9.36426 4.1082 9.32866 4.06201 9.27949C4.01583 9.23032 3.98458 9.16965 3.97199 9.10471C3.95941 9.03976 3.96602 8.97327 3.99104 8.91317C4.01605 8.85306 4.05842 8.80187 4.1131 8.76569V8.76569Z"
        fill="white" />
</svg>