<svg width="16" height="16" viewBox="0 0 16 16" fill="none" xmlns="http://www.w3.org/2000/svg">
<path fill-rule="evenodd" clip-rule="evenodd" d="M4.26401 0H11.728C14.448 0 16 1.536 16 4.264V11.736C16 14.448 14.456 16 11.736 16H4.26401C1.536 16 0 14.448 0 11.736V4.264C0 1.536 1.536 0 4.26401 0ZM8.65598 8.66399H10.928C11.296 8.65599 11.592 8.35999 11.592 7.99201C11.592 7.62401 11.296 7.32801 10.928 7.32801H8.65598V5.072C8.65598 4.704 8.35998 4.408 7.99201 4.408C7.62401 4.408 7.32801 4.704 7.32801 5.072V7.32801H5.06401C4.88801 7.32801 4.72001 7.40001 4.59201 7.52001C4.47201 7.64801 4.40001 7.81521 4.40001 7.99201C4.40001 8.35999 4.69601 8.65599 5.06401 8.66399H7.32801V10.928C7.32801 11.296 7.62401 11.592 7.99201 11.592C8.35998 11.592 8.65598 11.296 8.65598 10.928V8.66399Z" fill="#FD8204"/>
</svg>
