<svg fill="none" height="20" viewBox="0 0 20 20" width="20" xmlns="http://www.w3.org/2000/svg">
    <path clip-rule="evenodd"
        d="M15.7689 5.97978H20C20 2.2051 17.9644 0 14.5156 0H5.48444C2.03556 0 0 2.2051 0 5.93163V14.0683C0 17.7949 2.03556 20 5.48444 20H14.5156C17.9644 20 20 17.7949 20 14.0683V13.7217H15.7689C13.8052 13.7217 12.2133 11.9972 12.2133 9.87C12.2133 7.74277 13.8052 6.0183 15.7689 6.0183V5.97978ZM15.7689 7.63601H19.2533C19.6657 7.63601 20 7.99816 20 8.44488V11.2567C19.9952 11.7012 19.6637 12.0603 19.2533 12.0654H15.8489C14.8548 12.08 13.9855 11.3427 13.76 10.2937C13.6471 9.64255 13.8056 8.97063 14.1931 8.45802C14.5805 7.94541 15.1573 7.64452 15.7689 7.63601ZM15.92 10.5922H16.2489C16.6711 10.5922 17.0133 10.2214 17.0133 9.76408C17.0133 9.30672 16.6711 8.93597 16.2489 8.93597H15.92C15.7181 8.93339 15.5236 9.01849 15.38 9.17227C15.2364 9.32605 15.1555 9.5357 15.1556 9.75446C15.1555 10.2134 15.4964 10.5869 15.92 10.5922ZM4.73778 5.97978H10.3822C10.8044 5.97978 11.1467 5.60902 11.1467 5.15166C11.1467 4.6943 10.8044 4.32354 10.3822 4.32354H4.73778C4.31903 4.32351 3.9782 4.68844 3.97333 5.14203C3.97331 5.60097 4.31415 5.9745 4.73778 5.97978Z"
        fill="#CFCFCF" fill-rule="evenodd" />
</svg>
